{
	"asset":{
		"generator":"Khronos glTF Blender I/O v4.4.56",
		"version":"2.0"
	},
	"extensionsUsed":[
		"KHR_materials_specular"
	],
	"scene":0,
	"scenes":[
		{
			"name":"Scene",
			"nodes":[
				0
			]
		}
	],
	"nodes":[
		{
			"mesh":0,
			"name":"Ch034_Model",
			"rotation":[
				0.002077511278912425,
				0,
				0,
				0.9999978542327881
			]
		}
	],
	"materials":[
		{
			"doubleSided":true,
			"extensions":{
				"KHR_materials_specular":{
					"specularFactor":0
				}
			},
			"name":"MI_Ch034_Body_Metal",
			"pbrMetallicRoughness":{
				"roughnessFactor":0.858578622341156
			}
		},
		{
			"doubleSided":true,
			"extensions":{
				"KHR_materials_specular":{
					"specularFactor":0
				}
			},
			"name":"MI_Ch034_Face_Brow",
			"pbrMetallicRoughness":{
				"roughnessFactor":0.858578622341156
			}
		},
		{
			"doubleSided":true,
			"extensions":{
				"KHR_materials_specular":{
					"specularFactor":0
				}
			},
			"name":"MI_Ch034_Face_NoRim",
			"pbrMetallicRoughness":{
				"roughnessFactor":0.858578622341156
			}
		},
		{
			"doubleSided":true,
			"extensions":{
				"KHR_materials_specular":{
					"specularFactor":0
				}
			},
			"name":"MI_Ch034_Hair",
			"pbrMetallicRoughness":{
				"roughnessFactor":0.858578622341156
			}
		},
		{
			"doubleSided":true,
			"extensions":{
				"KHR_materials_specular":{
					"specularFactor":0
				}
			},
			"name":"MI_Ch034_Face",
			"pbrMetallicRoughness":{
				"roughnessFactor":0.858578622341156
			}
		},
		{
			"doubleSided":true,
			"extensions":{
				"KHR_materials_specular":{
					"specularFactor":0
				}
			},
			"name":"MI_Ch034_Gisou",
			"pbrMetallicRoughness":{
				"roughnessFactor":0.858578622341156
			}
		},
		{
			"doubleSided":true,
			"extensions":{
				"KHR_materials_specular":{
					"specularFactor":0
				}
			},
			"name":"MI_Ch034_Body",
			"pbrMetallicRoughness":{
				"roughnessFactor":0.858578622341156
			}
		},
		{
			"alphaMode":"BLEND",
			"doubleSided":true,
			"extensions":{
				"KHR_materials_specular":{
					"specularFactor":0
				}
			},
			"name":"MI_Ch034_OL_Gisou",
			"pbrMetallicRoughness":{
				"baseColorTexture":{
					"index":0
				},
				"roughnessFactor":0.858578622341156
			}
		},
		{
			"alphaMode":"BLEND",
			"doubleSided":true,
			"extensions":{
				"KHR_materials_specular":{
					"specularFactor":0
				}
			},
			"name":"MI_Ch034_OL_Body",
			"pbrMetallicRoughness":{
				"baseColorTexture":{
					"index":1
				},
				"roughnessFactor":0.858578622341156
			}
		},
		{
			"alphaMode":"BLEND",
			"doubleSided":true,
			"extensions":{
				"KHR_materials_specular":{
					"specularFactor":0
				}
			},
			"name":"MI_Ch034_OL_Hair",
			"pbrMetallicRoughness":{
				"baseColorTexture":{
					"index":2
				},
				"roughnessFactor":0.858578622341156
			}
		},
		{
			"doubleSided":true,
			"extensions":{
				"KHR_materials_specular":{
					"specularFactor":0
				}
			},
			"name":"MI_Ch034_OL_Face_NoLine",
			"pbrMetallicRoughness":{
				"roughnessFactor":0.858578622341156
			}
		},
		{
			"alphaMode":"BLEND",
			"doubleSided":true,
			"extensions":{
				"KHR_materials_specular":{
					"specularFactor":0
				}
			},
			"name":"MI_Ch034_OL_Face",
			"pbrMetallicRoughness":{
				"baseColorTexture":{
					"index":3
				},
				"roughnessFactor":0.858578622341156
			}
		}
	],
	"meshes":[
		{
			"name":"\u7db2\u683c",
			"primitives":[
				{
					"attributes":{
						"POSITION":0,
						"NORMAL":1,
						"TEXCOORD_0":2,
						"COLOR_0":3,
						"COLOR_1":4
					},
					"indices":5,
					"material":0
				},
				{
					"attributes":{
						"POSITION":6,
						"NORMAL":7,
						"TEXCOORD_0":8,
						"COLOR_0":9,
						"COLOR_1":10
					},
					"indices":11,
					"material":1
				},
				{
					"attributes":{
						"POSITION":12,
						"NORMAL":13,
						"TEXCOORD_0":14,
						"COLOR_0":15,
						"COLOR_1":16
					},
					"indices":17,
					"material":2
				},
				{
					"attributes":{
						"POSITION":18,
						"NORMAL":19,
						"TEXCOORD_0":20,
						"COLOR_0":21,
						"COLOR_1":22
					},
					"indices":23,
					"material":3
				},
				{
					"attributes":{
						"POSITION":24,
						"NORMAL":25,
						"TEXCOORD_0":26,
						"COLOR_0":27,
						"COLOR_1":28
					},
					"indices":29,
					"material":4
				},
				{
					"attributes":{
						"POSITION":30,
						"NORMAL":31,
						"TEXCOORD_0":32,
						"COLOR_0":33,
						"COLOR_1":34
					},
					"indices":35,
					"material":5
				},
				{
					"attributes":{
						"POSITION":36,
						"NORMAL":37,
						"TEXCOORD_0":38,
						"COLOR_0":39,
						"COLOR_1":40
					},
					"indices":41,
					"material":6
				},
				{
					"attributes":{
						"POSITION":42,
						"NORMAL":43,
						"TEXCOORD_0":44,
						"COLOR_0":45,
						"COLOR_1":46
					},
					"indices":47,
					"material":7
				},
				{
					"attributes":{
						"POSITION":48,
						"NORMAL":49,
						"TEXCOORD_0":50,
						"COLOR_0":51,
						"COLOR_1":52
					},
					"indices":53,
					"material":8
				},
				{
					"attributes":{
						"POSITION":54,
						"NORMAL":55,
						"TEXCOORD_0":56,
						"COLOR_0":57,
						"COLOR_1":58
					},
					"indices":59,
					"material":9
				},
				{
					"attributes":{
						"POSITION":60,
						"NORMAL":61,
						"TEXCOORD_0":62,
						"COLOR_0":63,
						"COLOR_1":64
					},
					"indices":65,
					"material":10
				},
				{
					"attributes":{
						"POSITION":66,
						"NORMAL":67,
						"TEXCOORD_0":68,
						"COLOR_0":69,
						"COLOR_1":70
					},
					"indices":71,
					"material":11
				}
			]
		}
	],
	"textures":[
		{
			"sampler":0,
			"source":0
		},
		{
			"sampler":0,
			"source":1
		},
		{
			"sampler":0,
			"source":2
		},
		{
			"sampler":0,
			"source":3
		}
	],
	"images":[
		{
			"mimeType":"image/png",
			"name":"_5adff19-_5adff19",
			"uri":"_5adff19-_5adff19.png"
		},
		{
			"mimeType":"image/png",
			"name":"_5e5d6f3-_5e5d6f3",
			"uri":"_5e5d6f3-_5e5d6f3.png"
		},
		{
			"mimeType":"image/png",
			"name":"_5ef0244-_5ef0244",
			"uri":"_5ef0244-_5ef0244.png"
		},
		{
			"mimeType":"image/png",
			"name":"_cfb2948-_cfb2948",
			"uri":"_cfb2948-_cfb2948.png"
		}
	],
	"accessors":[
		{
			"bufferView":0,
			"componentType":5126,
			"count":2359,
			"max":[
				11.375532150268555,
				131.0725555419922,
				13.368555068969727
			],
			"min":[
				-13.270126342773438,
				-0.0019120000069960952,
				-13.368555068969727
			],
			"type":"VEC3"
		},
		{
			"bufferView":1,
			"componentType":5126,
			"count":2359,
			"type":"VEC3"
		},
		{
			"bufferView":2,
			"componentType":5126,
			"count":2359,
			"type":"VEC2"
		},
		{
			"bufferView":3,
			"componentType":5121,
			"count":2359,
			"normalized":true,
			"type":"VEC4"
		},
		{
			"bufferView":4,
			"componentType":5123,
			"count":2359,
			"normalized":true,
			"type":"VEC4"
		},
		{
			"bufferView":5,
			"componentType":5123,
			"count":7338,
			"type":"SCALAR"
		},
		{
			"bufferView":6,
			"componentType":5126,
			"count":132,
			"max":[
				8.958821296691895,
				135.98304748535156,
				6.6013288497924805
			],
			"min":[
				6.946751117706299,
				135.51416015625,
				-6.601330280303955
			],
			"type":"VEC3"
		},
		{
			"bufferView":7,
			"componentType":5126,
			"count":132,
			"type":"VEC3"
		},
		{
			"bufferView":8,
			"componentType":5126,
			"count":132,
			"type":"VEC2"
		},
		{
			"bufferView":9,
			"componentType":5121,
			"count":132,
			"normalized":true,
			"type":"VEC4"
		},
		{
			"bufferView":10,
			"componentType":5123,
			"count":132,
			"normalized":true,
			"type":"VEC4"
		},
		{
			"bufferView":11,
			"componentType":5123,
			"count":132,
			"type":"SCALAR"
		},
		{
			"bufferView":12,
			"componentType":5126,
			"count":4922,
			"max":[
				10.233663558959961,
				136.73123168945312,
				6.719995975494385
			],
			"min":[
				5.7835307121276855,
				126.52098846435547,
				-6.722030162811279
			],
			"type":"VEC3"
		},
		{
			"bufferView":13,
			"componentType":5126,
			"count":4922,
			"type":"VEC3"
		},
		{
			"bufferView":14,
			"componentType":5126,
			"count":4922,
			"type":"VEC2"
		},
		{
			"bufferView":15,
			"componentType":5121,
			"count":4922,
			"normalized":true,
			"type":"VEC4"
		},
		{
			"bufferView":16,
			"componentType":5123,
			"count":4922,
			"normalized":true,
			"type":"VEC4"
		},
		{
			"bufferView":17,
			"componentType":5123,
			"count":7410,
			"type":"SCALAR"
		},
		{
			"bufferView":18,
			"componentType":5126,
			"count":4481,
			"max":[
				11.821497917175293,
				149.27394104003906,
				39.64487075805664
			],
			"min":[
				-23.02240753173828,
				-11.70809555053711,
				-39.64486312866211
			],
			"type":"VEC3"
		},
		{
			"bufferView":19,
			"componentType":5126,
			"count":4481,
			"type":"VEC3"
		},
		{
			"bufferView":20,
			"componentType":5126,
			"count":4481,
			"type":"VEC2"
		},
		{
			"bufferView":21,
			"componentType":5121,
			"count":4481,
			"normalized":true,
			"type":"VEC4"
		},
		{
			"bufferView":22,
			"componentType":5123,
			"count":4481,
			"normalized":true,
			"type":"VEC4"
		},
		{
			"bufferView":23,
			"componentType":5123,
			"count":18414,
			"type":"SCALAR"
		},
		{
			"bufferView":24,
			"componentType":5126,
			"count":8481,
			"max":[
				18.750133514404297,
				144.26211547851562,
				47.93119812011719
			],
			"min":[
				-7.255005836486816,
				2.4808504581451416,
				-47.93119812011719
			],
			"type":"VEC3"
		},
		{
			"bufferView":25,
			"componentType":5126,
			"count":8481,
			"type":"VEC3"
		},
		{
			"bufferView":26,
			"componentType":5126,
			"count":8481,
			"type":"VEC2"
		},
		{
			"bufferView":27,
			"componentType":5121,
			"count":8481,
			"normalized":true,
			"type":"VEC4"
		},
		{
			"bufferView":28,
			"componentType":5123,
			"count":8481,
			"normalized":true,
			"type":"VEC4"
		},
		{
			"bufferView":29,
			"componentType":5123,
			"count":28749,
			"type":"SCALAR"
		},
		{
			"bufferView":30,
			"componentType":5126,
			"count":10111,
			"max":[
				-1.1668992042541504,
				124.68277740478516,
				69.97332763671875
			],
			"min":[
				-37.01710510253906,
				89.44002532958984,
				-69.97332763671875
			],
			"type":"VEC3"
		},
		{
			"bufferView":31,
			"componentType":5126,
			"count":10111,
			"type":"VEC3"
		},
		{
			"bufferView":32,
			"componentType":5126,
			"count":10111,
			"type":"VEC2"
		},
		{
			"bufferView":33,
			"componentType":5121,
			"count":10111,
			"normalized":true,
			"type":"VEC4"
		},
		{
			"bufferView":34,
			"componentType":5123,
			"count":10111,
			"normalized":true,
			"type":"VEC4"
		},
		{
			"bufferView":35,
			"componentType":5123,
			"count":26571,
			"type":"SCALAR"
		},
		{
			"bufferView":36,
			"componentType":5126,
			"count":23238,
			"max":[
				34.6869010925293,
				143.80926513671875,
				42.748390197753906
			],
			"min":[
				-40.80656051635742,
				2.4466440677642822,
				-42.748390197753906
			],
			"type":"VEC3"
		},
		{
			"bufferView":37,
			"componentType":5126,
			"count":23238,
			"type":"VEC3"
		},
		{
			"bufferView":38,
			"componentType":5126,
			"count":23238,
			"type":"VEC2"
		},
		{
			"bufferView":39,
			"componentType":5121,
			"count":23238,
			"normalized":true,
			"type":"VEC4"
		},
		{
			"bufferView":40,
			"componentType":5123,
			"count":23238,
			"normalized":true,
			"type":"VEC4"
		},
		{
			"bufferView":41,
			"componentType":5123,
			"count":88323,
			"type":"SCALAR"
		},
		{
			"bufferView":42,
			"componentType":5126,
			"count":10101,
			"max":[
				-1.1668992042541504,
				124.68277740478516,
				69.97332763671875
			],
			"min":[
				-37.01710510253906,
				89.44002532958984,
				-69.97332763671875
			],
			"type":"VEC3"
		},
		{
			"bufferView":43,
			"componentType":5126,
			"count":10101,
			"type":"VEC3"
		},
		{
			"bufferView":44,
			"componentType":5126,
			"count":10101,
			"type":"VEC2"
		},
		{
			"bufferView":45,
			"componentType":5121,
			"count":10101,
			"normalized":true,
			"type":"VEC4"
		},
		{
			"bufferView":46,
			"componentType":5123,
			"count":10101,
			"normalized":true,
			"type":"VEC4"
		},
		{
			"bufferView":47,
			"componentType":5123,
			"count":26571,
			"type":"SCALAR"
		},
		{
			"bufferView":48,
			"componentType":5126,
			"count":25597,
			"max":[
				34.6869010925293,
				143.80926513671875,
				42.748390197753906
			],
			"min":[
				-40.80656051635742,
				-0.0019120000069960952,
				-42.748390197753906
			],
			"type":"VEC3"
		},
		{
			"bufferView":49,
			"componentType":5126,
			"count":25597,
			"type":"VEC3"
		},
		{
			"bufferView":50,
			"componentType":5126,
			"count":25597,
			"type":"VEC2"
		},
		{
			"bufferView":51,
			"componentType":5121,
			"count":25597,
			"normalized":true,
			"type":"VEC4"
		},
		{
			"bufferView":52,
			"componentType":5123,
			"count":25597,
			"normalized":true,
			"type":"VEC4"
		},
		{
			"bufferView":53,
			"componentType":5123,
			"count":95661,
			"type":"SCALAR"
		},
		{
			"bufferView":54,
			"componentType":5126,
			"count":4355,
			"max":[
				11.821497917175293,
				149.27394104003906,
				39.64487075805664
			],
			"min":[
				-23.02240753173828,
				-11.70809555053711,
				-39.64486312866211
			],
			"type":"VEC3"
		},
		{
			"bufferView":55,
			"componentType":5126,
			"count":4355,
			"type":"VEC3"
		},
		{
			"bufferView":56,
			"componentType":5126,
			"count":4355,
			"type":"VEC2"
		},
		{
			"bufferView":57,
			"componentType":5121,
			"count":4355,
			"normalized":true,
			"type":"VEC4"
		},
		{
			"bufferView":58,
			"componentType":5123,
			"count":4355,
			"normalized":true,
			"type":"VEC4"
		},
		{
			"bufferView":59,
			"componentType":5123,
			"count":18414,
			"type":"SCALAR"
		},
		{
			"bufferView":60,
			"componentType":5126,
			"count":4484,
			"max":[
				10.233663558959961,
				136.73123168945312,
				6.719995975494385
			],
			"min":[
				5.7835307121276855,
				126.52098846435547,
				-6.722030162811279
			],
			"type":"VEC3"
		},
		{
			"bufferView":61,
			"componentType":5126,
			"count":4484,
			"type":"VEC3"
		},
		{
			"bufferView":62,
			"componentType":5126,
			"count":4484,
			"type":"VEC2"
		},
		{
			"bufferView":63,
			"componentType":5121,
			"count":4484,
			"normalized":true,
			"type":"VEC4"
		},
		{
			"bufferView":64,
			"componentType":5123,
			"count":4484,
			"normalized":true,
			"type":"VEC4"
		},
		{
			"bufferView":65,
			"componentType":5123,
			"count":4710,
			"type":"SCALAR"
		},
		{
			"bufferView":66,
			"componentType":5126,
			"count":8483,
			"max":[
				18.750133514404297,
				144.26211547851562,
				47.93119812011719
			],
			"min":[
				-7.255005836486816,
				2.4808504581451416,
				-47.93119812011719
			],
			"type":"VEC3"
		},
		{
			"bufferView":67,
			"componentType":5126,
			"count":8483,
			"type":"VEC3"
		},
		{
			"bufferView":68,
			"componentType":5126,
			"count":8483,
			"type":"VEC2"
		},
		{
			"bufferView":69,
			"componentType":5121,
			"count":8483,
			"normalized":true,
			"type":"VEC4"
		},
		{
			"bufferView":70,
			"componentType":5123,
			"count":8483,
			"normalized":true,
			"type":"VEC4"
		},
		{
			"bufferView":71,
			"componentType":5123,
			"count":28749,
			"type":"SCALAR"
		}
	],
	"bufferViews":[
		{
			"buffer":0,
			"byteLength":28308,
			"byteOffset":0,
			"target":34962
		},
		{
			"buffer":0,
			"byteLength":28308,
			"byteOffset":28308,
			"target":34962
		},
		{
			"buffer":0,
			"byteLength":18872,
			"byteOffset":56616,
			"target":34962
		},
		{
			"buffer":0,
			"byteLength":9436,
			"byteOffset":75488,
			"target":34962
		},
		{
			"buffer":0,
			"byteLength":18872,
			"byteOffset":84924,
			"target":34962
		},
		{
			"buffer":0,
			"byteLength":14676,
			"byteOffset":103796,
			"target":34963
		},
		{
			"buffer":0,
			"byteLength":1584,
			"byteOffset":118472,
			"target":34962
		},
		{
			"buffer":0,
			"byteLength":1584,
			"byteOffset":120056,
			"target":34962
		},
		{
			"buffer":0,
			"byteLength":1056,
			"byteOffset":121640,
			"target":34962
		},
		{
			"buffer":0,
			"byteLength":528,
			"byteOffset":122696,
			"target":34962
		},
		{
			"buffer":0,
			"byteLength":1056,
			"byteOffset":123224,
			"target":34962
		},
		{
			"buffer":0,
			"byteLength":264,
			"byteOffset":124280,
			"target":34963
		},
		{
			"buffer":0,
			"byteLength":59064,
			"byteOffset":124544,
			"target":34962
		},
		{
			"buffer":0,
			"byteLength":59064,
			"byteOffset":183608,
			"target":34962
		},
		{
			"buffer":0,
			"byteLength":39376,
			"byteOffset":242672,
			"target":34962
		},
		{
			"buffer":0,
			"byteLength":19688,
			"byteOffset":282048,
			"target":34962
		},
		{
			"buffer":0,
			"byteLength":39376,
			"byteOffset":301736,
			"target":34962
		},
		{
			"buffer":0,
			"byteLength":14820,
			"byteOffset":341112,
			"target":34963
		},
		{
			"buffer":0,
			"byteLength":53772,
			"byteOffset":355932,
			"target":34962
		},
		{
			"buffer":0,
			"byteLength":53772,
			"byteOffset":409704,
			"target":34962
		},
		{
			"buffer":0,
			"byteLength":35848,
			"byteOffset":463476,
			"target":34962
		},
		{
			"buffer":0,
			"byteLength":17924,
			"byteOffset":499324,
			"target":34962
		},
		{
			"buffer":0,
			"byteLength":35848,
			"byteOffset":517248,
			"target":34962
		},
		{
			"buffer":0,
			"byteLength":36828,
			"byteOffset":553096,
			"target":34963
		},
		{
			"buffer":0,
			"byteLength":101772,
			"byteOffset":589924,
			"target":34962
		},
		{
			"buffer":0,
			"byteLength":101772,
			"byteOffset":691696,
			"target":34962
		},
		{
			"buffer":0,
			"byteLength":67848,
			"byteOffset":793468,
			"target":34962
		},
		{
			"buffer":0,
			"byteLength":33924,
			"byteOffset":861316,
			"target":34962
		},
		{
			"buffer":0,
			"byteLength":67848,
			"byteOffset":895240,
			"target":34962
		},
		{
			"buffer":0,
			"byteLength":57498,
			"byteOffset":963088,
			"target":34963
		},
		{
			"buffer":0,
			"byteLength":121332,
			"byteOffset":1020588,
			"target":34962
		},
		{
			"buffer":0,
			"byteLength":121332,
			"byteOffset":1141920,
			"target":34962
		},
		{
			"buffer":0,
			"byteLength":80888,
			"byteOffset":1263252,
			"target":34962
		},
		{
			"buffer":0,
			"byteLength":40444,
			"byteOffset":1344140,
			"target":34962
		},
		{
			"buffer":0,
			"byteLength":80888,
			"byteOffset":1384584,
			"target":34962
		},
		{
			"buffer":0,
			"byteLength":53142,
			"byteOffset":1465472,
			"target":34963
		},
		{
			"buffer":0,
			"byteLength":278856,
			"byteOffset":1518616,
			"target":34962
		},
		{
			"buffer":0,
			"byteLength":278856,
			"byteOffset":1797472,
			"target":34962
		},
		{
			"buffer":0,
			"byteLength":185904,
			"byteOffset":2076328,
			"target":34962
		},
		{
			"buffer":0,
			"byteLength":92952,
			"byteOffset":2262232,
			"target":34962
		},
		{
			"buffer":0,
			"byteLength":185904,
			"byteOffset":2355184,
			"target":34962
		},
		{
			"buffer":0,
			"byteLength":176646,
			"byteOffset":2541088,
			"target":34963
		},
		{
			"buffer":0,
			"byteLength":121212,
			"byteOffset":2717736,
			"target":34962
		},
		{
			"buffer":0,
			"byteLength":121212,
			"byteOffset":2838948,
			"target":34962
		},
		{
			"buffer":0,
			"byteLength":80808,
			"byteOffset":2960160,
			"target":34962
		},
		{
			"buffer":0,
			"byteLength":40404,
			"byteOffset":3040968,
			"target":34962
		},
		{
			"buffer":0,
			"byteLength":80808,
			"byteOffset":3081372,
			"target":34962
		},
		{
			"buffer":0,
			"byteLength":53142,
			"byteOffset":3162180,
			"target":34963
		},
		{
			"buffer":0,
			"byteLength":307164,
			"byteOffset":3215324,
			"target":34962
		},
		{
			"buffer":0,
			"byteLength":307164,
			"byteOffset":3522488,
			"target":34962
		},
		{
			"buffer":0,
			"byteLength":204776,
			"byteOffset":3829652,
			"target":34962
		},
		{
			"buffer":0,
			"byteLength":102388,
			"byteOffset":4034428,
			"target":34962
		},
		{
			"buffer":0,
			"byteLength":204776,
			"byteOffset":4136816,
			"target":34962
		},
		{
			"buffer":0,
			"byteLength":191322,
			"byteOffset":4341592,
			"target":34963
		},
		{
			"buffer":0,
			"byteLength":52260,
			"byteOffset":4532916,
			"target":34962
		},
		{
			"buffer":0,
			"byteLength":52260,
			"byteOffset":4585176,
			"target":34962
		},
		{
			"buffer":0,
			"byteLength":34840,
			"byteOffset":4637436,
			"target":34962
		},
		{
			"buffer":0,
			"byteLength":17420,
			"byteOffset":4672276,
			"target":34962
		},
		{
			"buffer":0,
			"byteLength":34840,
			"byteOffset":4689696,
			"target":34962
		},
		{
			"buffer":0,
			"byteLength":36828,
			"byteOffset":4724536,
			"target":34963
		},
		{
			"buffer":0,
			"byteLength":53808,
			"byteOffset":4761364,
			"target":34962
		},
		{
			"buffer":0,
			"byteLength":53808,
			"byteOffset":4815172,
			"target":34962
		},
		{
			"buffer":0,
			"byteLength":35872,
			"byteOffset":4868980,
			"target":34962
		},
		{
			"buffer":0,
			"byteLength":17936,
			"byteOffset":4904852,
			"target":34962
		},
		{
			"buffer":0,
			"byteLength":35872,
			"byteOffset":4922788,
			"target":34962
		},
		{
			"buffer":0,
			"byteLength":9420,
			"byteOffset":4958660,
			"target":34963
		},
		{
			"buffer":0,
			"byteLength":101796,
			"byteOffset":4968080,
			"target":34962
		},
		{
			"buffer":0,
			"byteLength":101796,
			"byteOffset":5069876,
			"target":34962
		},
		{
			"buffer":0,
			"byteLength":67864,
			"byteOffset":5171672,
			"target":34962
		},
		{
			"buffer":0,
			"byteLength":33932,
			"byteOffset":5239536,
			"target":34962
		},
		{
			"buffer":0,
			"byteLength":67864,
			"byteOffset":5273468,
			"target":34962
		},
		{
			"buffer":0,
			"byteLength":57498,
			"byteOffset":5341332,
			"target":34963
		}
	],
	"samplers":[
		{
			"magFilter":9729,
			"minFilter":9987
		}
	],
	"buffers":[
		{
			"byteLength":5398832,
			"uri":"model.bin"
		}
	]
}
